PathFileType	4	(X/Y/Z)	KinectSkeleton.trc																																																	
DataRate	CameraRate	NumFrames	NumMarkers	Units	OrigDataRate	OrigDataStartFrame	OrigNumFrames																																													
60	60	19	17	mm	60	248	300																																													
Frame#	Time	Neck			ShoulderMid			R.Shoulder			L.Shoulder			R.Elbow			L.Elbow			R.Wrist			L.Wrist			HipCenter			R.Hip			L.Hip			R.Knee			L.Knee			R.Ankle			L.Ankle			R.Foot			L.Foot		
		X1	Y1	Z1	X2	Y2	Z2	X3	Y3	Z3	X4	Y4	Z4	X5	Y5	Z5	X6	Y6	Z6	X7	Y7	Z7	X8	Y8	Z8	X9	Y9	Z9	X10	Y10	Z10	X11	Y11	Z11	X12	Y12	Z12	X13	Y13	Z13	X14	Y14	Z14	X15	Y15	Z15	X16	Y16	Z16	X17	Y17	Z17
																																																				
248	16.892	-1270.848	1470.049	424.911	-1270.848	1470.049	424.911	-1334.027	1397.974	579.213	-1206.38	1397.899	260.324	-1484.506	1161.925	656.493	-1169.664	1164.73	100.583	-1420.042	940.848	731.665	-981.185	1017.429	101.91	-1319.537	917.614	430.793	-1343.206	920.73	512.167	-1293.289	914.159	340.554	-1357.461	510.289	550.278	-1299.638	502.409	310.468	-1470.215	127.809	550.66	-1347.045	112.43	273.312	-1321.499	38.604	589.753	-1180.072	29.111	323.42
249	16.972	-1263.415	1468.718	414.265	-1263.415	1468.718	414.265	-1334.052	1403.188	567.001	-1202.263	1408.297	245.447	-1484.593	1165.419	639.232	-1127.254	1178.123	94.773	-1414.146	949.533	723.89	-933.1	1038.629	105.832	-1315.615	916.407	419.403	-1337.862	920.082	501.194	-1290.943	912.332	328.7	-1367.023	510.738	544.361	-1301.323	499.995	306.033	-1473.503	126.368	552.977	-1343.262	108.497	277.271	-1326.958	35.82	597.216	-1174.054	28.719	325.974
250	17.035	-1265.689	1466.485	403.507	-1265.689	1466.485	403.507	-1334.109	1402.582	557.737	-1202.324	1397.962	238.12	-1485.962	1167.835	634.696	-1104.509	1176.404	88.657	-1419.792	953.291	724.707	-903.036	1049.126	104.931	-1315.265	915.131	414.572	-1338.053	919.004	496.034	-1289.994	910.835	324.233	-1365.608	510.458	540.185	-1298.829	499.08	305.145	-1471.15	126.728	552.459	-1344.515	108.582	279.086	-1323.885	38.441	597.492	-1175.633	27.438	325.11
251	17.094	-1261.062	1468.297	389.358	-1261.062	1468.297	389.358	-1330.848	1406.147	545.198	-1202.122	1394.037	223.588	-1485.995	1175.483	632.652	-1078.193	1175.9	86.26	-1430.269	958.343	726.654	-856.004	1093.467	124.472	-1316.026	914.912	408.413	-1342.372	919.944	489.175	-1286.81	909.331	318.852	-1370.945	509.89	537.613	-1296.297	495.53	300.033	-1475.36	123.832	550.766	-1334.796	102.245	274.65	-1325.215	40.005	598.227	-1163.646	27.798	327.183
252	17.166	-1264.536	1469.028	389.255	-1264.536	1469.028	389.255	-1335.152	1406.066	543.355	-1194.429	1419.995	221.669	-1497.343	1176.645	622.101	-1110.693	1187.583	76.82	-1444.085	964.819	729.501	-874.035	1169.736	114.825	-1315.142	914.879	399.314	-1341.215	919.922	480.277	-1286.229	909.287	309.529	-1371.795	510.365	535.679	-1296.982	494.84	294.383	-1475.23	123.587	550.725	-1337.58	101.157	270.652	-1323.281	42.396	597.876	-1167.59	27.403	328.561
253	17.218	-1260.284	1468.686	382.632	-1260.284	1468.686	382.632	-1332.13	1403.446	536.057	-1190.806	1401.963	218.195	-1497.122	1179.244	622.778	-1077.398	1174.902	86.044	-1448.706	965.631	728.493	-845.191	1196.26	143.527	-1313.032	914.809	395.205	-1337.784	919.472	476.535	-1285.584	909.637	305.013	-1376.295	510.565	529.348	-1294.733	495.341	293.964	-1473.529	122.843	551.523	-1342.832	102.659	272.924	-1320.495	43.58	597.923	-1170.793	28.141	322.735
254	17.28	-1254.376	1463.184	374.315	-1254.376	1463.184	374.315	-1327.819	1401.769	527.25	-1179.094	1395.694	214.189	-1505.231	1189.018	613.407	-1057.063	1175.458	81.264	-1467.985	979.999	729.526	-823.041	1209.603	115.51	-1307.627	912.326	387.609	-1331.729	916.328	468.724	-1280.898	907.888	297.655	-1382.067	511.054	523.347	-1293.463	495.679	290.121	-1476.383	125.173	552.939	-1337.377	104.225	275.164	-1325.993	40.646	595.067	-1168.037	26.096	324.917
255	17.341	-1250.283	1464.76	364.668	-1250.283	1464.76	364.668	-1332.055	1406.329	515.057	-1165.129	1391.093	211.341	-1515.25	1196.992	599.753	-1038.542	1181.481	64.767	-1483.273	993.753	728.229	-815.98	1249.154	121.858	-1304.428	912.752	381.344	-1329.856	916.723	462.264	-1276.229	908.349	291.608	-1379.837	510.929	520.526	-1289.644	495.157	286.964	-1473.08	124.103	553.559	-1336.186	102.999	274.199	-1319.644	43.978	595.058	-1167.917	23.944	327.742
256	17.416	-1247.819	1469.402	349.481	-1247.819	1469.402	349.481	-1331.489	1410.939	499.228	-1152.42	1392.85	202.37	-1515.74	1199.923	580.145	-1010.422	1187.458	62.561	-1507.623	1000.537	719.213	-786.018	1254.746	115.529	-1297.344	916.024	373.375	-1324.985	921.597	453.72	-1266.692	909.844	284.277	-1380.405	515.775	514.905	-1285.257	495.688	281.778	-1473.922	128.217	551.728	-1336.382	102.93	271.304	-1324.243	41.369	595.476	-1168.624	23.985	328.426
257	17.48	-1235.155	1468.054	332.153	-1235.155	1468.054	332.153	-1321.813	1407.983	480.085	-1133.524	1389.866	190.488	-1516.285	1205.309	557.654	-984.228	1179.668	66.728	-1524.912	1012.126	704.928	-770.793	1267.34	132.87	-1288.432	915.559	360.924	-1317.118	921.993	440.777	-1256.619	908.424	272.371	-1377.179	518.049	507.896	-1281.332	494.863	275.261	-1475.372	132.237	547.908	-1334.685	102.557	270.034	-1329.191	43.347	598.39	-1168.062	23.055	329.236
258	17.56	-1219.756	1463.439	314.893	-1219.756	1463.439	314.893	-1311.364	1401.723	459.168	-1111.652	1384.234	180.047	-1519.916	1217.485	542.149	-952.925	1186.582	49.814	-1544.355	1028.725	691.967	-746.521	1258.913	146.67	-1281.598	914.195	350.515	-1311.713	922.409	429.358	-1248.202	905.086	263.082	-1378.577	521.685	500.371	-1275.922	493.201	269.581	-1468.53	136.652	551.751	-1333.329	102.844	265.718	-1320.994	48.401	596.947	-1169.481	23.995	331.022
259	17.62	-1206.089	1462.529	299.678	-1206.089	1462.529	299.678	-1303.198	1405.935	441.611	-1094.765	1380.537	169.179	-1519.727	1227.885	516.276	-912.539	1194.133	54.67	-1562.143	1053.83	678.959	-702.193	1246.817	155.092	-1273.825	914.615	336.453	-1304.567	923.192	414.926	-1239.734	905.104	249.429	-1366.187	525.018	501.102	-1270.023	493.962	262.713	-1473.956	144.568	549.264	-1329.958	104.355	264.509	-1340.605	44.971	611.192	-1170.175	21.009	333.639
260	17.695	-1194.045	1463.201	282.217	-1194.045	1463.201	282.217	-1302.474	1407.859	418.021	-1078.554	1372.762	159.67	-1520.265	1234.968	503.923	-888.584	1188.457	52.293	-1582.678	1066.65	667.358	-684.448	1264.33	152.518	-1269.123	915.611	328.598	-1303.099	925.421	405.878	-1231.446	904.732	242.896	-1357.885	527.107	501.814	-1265.89	492.745	260.425	-1469.293	145.984	546.886	-1328.582	102.319	265.676	-1338.276	61.595	633.216	-1167.47	19.002	333.478
261	17.755	-1181.686	1467.388	258.358	-1181.686	1467.388	258.358	-1285.793	1417.581	399.101	-1058.588	1373.724	145.936	-1519.052	1262.756	479.358	-859.614	1191.642	51.296	-1589.885	1124.663	666.261	-663.143	1282.017	155.149	-1260.997	921.269	321.046	-1293.763	933.883	398.507	-1224.661	907.282	235.144	-1338.308	537.656	508.593	-1257.573	495.165	258.47	-1434.622	153.394	563.253	-1323.369	105.013	266.289	-1308.278	84.472	668.474	-1163.53	19.708	335.013
262	17.818	-1173.088	1462.534	254.908	-1173.088	1462.534	254.908	-1283.335	1424.459	390.719	-1050.925	1374.428	141.639	-1513.727	1270.067	470.777	-840.891	1205.847	53.735	-1590.617	1138.045	656.888	-642.83	1293.205	152.119	-1260.469	922.533	318.169	-1293.419	936.122	394.558	-1223.929	907.463	233.458	-1327.322	544.548	511.191	-1258.316	499.189	257.432	-1414.579	162.576	571.069	-1321.581	112.225	267.649	-1295.274	95.845	683.041	-1167.088	19.771	334.512
263	17.893	-1170.291	1464.258	243.824	-1170.291	1464.258	243.824	-1282.506	1421.877	377.601	-1041.393	1376.525	137.959	-1516.833	1280.872	470.297	-831.731	1208.536	47.746	-1598.589	1160.932	662.522	-645.859	1320.646	145.013	-1259.953	925.471	314.581	-1300.627	942.022	386.568	-1214.847	907.117	234.75	-1307.417	557.544	529.149	-1255.604	499.183	256.893	-1376.644	172.791	595.363	-1322.735	112.642	262.754	-1259.329	122.942	717.83	-1169.89	20.114	333.386
264	17.954	-1166.012	1465.84	230.593	-1166.012	1465.84	230.593	-1280.238	1417.472	361.999	-1033.171	1375.527	130.702	-1516.869	1288.9	467.479	-803.854	1229.583	48.923	-1605.415	1202.217	674.484	-617.555	1347.91	138.649	-1256.434	926.91	307.822	-1303.169	945.67	375.623	-1204.607	906.105	232.632	-1277.136	580.127	561.196	-1252.369	498.554	259.493	-1310.127	197.706	663.078	-1324.483	112.278	265.647	-1188.412	175.622	789.741	-1169.256	22.155	335.021
265	18.015	-1168.245	1466.128	227.732	-1168.245	1466.128	227.732	-1282.548	1417.016	359.397	-1033.766	1376.168	128.821	-1519.889	1291.032	468.066	-802.038	1231.347	49.763	-1610.899	1201.864	673.548	-617.58	1354.236	138.519	-1255.845	926.379	308.959	-1302.978	945.557	376.595	-1203.576	905.111	233.953	-1265.653	584.081	570.004	-1251.627	496.739	261.412	-1281.211	203.506	685.395	-1324.812	109.791	266.812	-1158.277	190.195	812.64	-1169.63	20.386	338.332
266	18.08	-1169.734	1464.625	222.288	-1169.734	1464.625	222.288	-1287.799	1418.629	351.485	-1034.511	1374.658	124.996	-1525.399	1292.017	458.342	-802.488	1231.601	44.276	-1603.021	1228.235	678.084	-628.026	1368.568	132.213	-1254.494	925.408	307.261	-1302.5	944.354	374.277	-1201.257	904.399	232.944	-1244.669	592.905	580.149	-1249.908	496.459	261.705	-1253.713	213.783	700.036	-1324.774	110.117	268.535	-1130.143	211.859	827.184	-1170.159	21.138	341.462
